<svg width="967" height="170" viewBox="0 0 967 170" fill="none" xmlns="http://www.w3.org/2000/svg">
<path d="M149.836 89.6425C149.927 88.2772 150 86.4085 150 84.9512C150 83.3128 149.934 81.6116 149.792 79.5991C148.428 60.691 139.955 43.0008 126.075 30.088C112.195 17.1751 93.9408 9.99775 74.9841 10C56.0268 10.0023 37.7739 17.184 23.8977 30.1001C10.0217 43.0163 1.55204 60.7084 0.193067 79.6169C-1.16591 98.5253 4.6866 117.247 16.573 132.015C28.4595 146.782 45.4978 156.501 64.2598 159.213C83.0218 161.927 102.116 157.434 117.699 146.638C133.282 135.843 144.198 119.546 148.251 101.028C148.251 101.028 148.49 100.111 148.688 99.0251C149.18 96.2408 149.708 92.0473 149.836 89.6425ZM74.9325 150.637C62.1402 150.641 49.625 146.91 38.9235 139.901C28.2221 132.892 19.8 122.911 14.6913 111.183C9.58267 99.4549 8.00982 86.4903 10.1658 73.8809C12.3217 61.2715 18.1127 49.5661 26.8278 40.2016C35.5428 30.8372 46.8026 24.2213 59.2247 21.1662C71.647 18.1111 84.6909 18.7498 96.7553 23.0038C108.819 27.2578 119.379 34.942 127.138 45.113C134.897 55.2841 139.516 67.4993 140.43 80.259C140.541 81.8109 140.617 83.371 140.617 84.9512C140.617 86.5313 140.541 88.0906 140.43 89.6425H83.0145C81.9817 91.4309 80.3877 92.8285 78.4797 93.6187C76.5717 94.4088 74.4562 94.5473 72.4614 94.0127C70.4668 93.478 68.7041 92.3002 67.447 90.6618C66.1899 89.0234 65.5085 87.0159 65.5085 84.9507C65.5085 82.8856 66.1899 80.8782 67.447 79.2398C68.7041 77.6013 70.4668 76.4234 72.4614 75.8889C74.4562 75.3542 76.5717 75.4927 78.4797 76.2829C80.3877 77.073 81.9817 78.4706 83.0145 80.259H131.024C129.856 66.1847 123.444 53.0627 113.058 43.4924C102.674 33.9221 89.0718 28.6018 74.9492 28.5853C60.8265 28.5688 47.2129 33.8574 36.8051 43.4035C26.3973 52.9496 19.9547 66.0567 18.7536 80.1282C17.5525 94.1996 21.6804 108.209 30.3198 119.381C38.9591 130.553 51.4795 138.072 65.4006 140.45C79.3217 142.826 93.6277 139.888 105.485 132.217C117.343 124.545 125.885 112.7 129.422 99.027H139.085C135.875 113.654 127.765 126.744 116.098 136.13C104.43 145.516 89.9066 150.634 74.9325 150.637ZM74.9325 56.8042C69.9899 56.7981 65.1328 58.0936 60.8497 60.5603C56.5666 63.027 53.0085 66.578 50.5332 70.8562C48.0579 75.1344 46.7528 79.9889 46.749 84.9315C46.7453 89.8742 48.043 94.7307 50.5117 99.0126C52.9805 103.294 56.5331 106.851 60.8124 109.324C65.0918 111.798 69.9469 113.1 74.8896 113.102C79.8322 113.104 84.6881 111.803 88.9689 109.333C93.25 106.861 96.8044 103.308 99.2757 99.027H109.679C106.412 107.101 100.439 113.787 92.7839 117.941C85.1279 122.094 76.266 123.456 67.7168 121.792C59.1675 120.128 51.463 115.542 45.9237 108.821C40.3844 102.099 37.3552 93.6609 37.3552 84.9512C37.3552 76.2415 40.3844 67.8029 45.9237 61.0816C51.463 54.3604 59.1675 49.7749 67.7168 48.111C76.266 46.4471 85.1279 47.8084 92.7839 51.9617C100.439 56.1149 106.412 62.8014 109.679 70.8754H99.2739C96.8099 66.5986 93.2627 63.0463 88.9888 60.5761C84.7154 58.1059 79.8667 56.8049 74.9307 56.8042H74.9325Z" fill="#4C52BF"/>
<path d="M261.648 124C254.736 124 249.68 122.4 246.48 119.2C243.28 116 241.68 110.944 241.68 104.032V82.144C241.68 75.168 243.248 70.112 246.384 66.976C249.584 63.776 254.64 62.176 261.552 62.176H273.168C279.056 62.176 283.44 63.424 286.32 65.92C289.2 68.352 290.8 72.288 291.12 77.728C291.248 79.392 290.416 80.224 288.624 80.224C287.088 80.224 286.256 79.392 286.128 77.728C285.872 73.824 284.784 71.104 282.864 69.568C280.944 67.968 277.712 67.168 273.168 67.168H261.552C257.84 67.168 254.896 67.648 252.72 68.608C250.608 69.568 249.072 71.136 248.112 73.312C247.152 75.424 246.672 78.368 246.672 82.144V104.032C246.672 107.808 247.152 110.784 248.112 112.96C249.072 115.072 250.608 116.608 252.72 117.568C254.896 118.528 257.872 119.008 261.648 119.008H273.168C277.712 119.008 280.944 118.24 282.864 116.704C284.784 115.168 285.872 112.416 286.128 108.448C286.256 106.784 287.088 105.952 288.624 105.952C290.416 105.952 291.248 106.816 291.12 108.544C290.8 113.984 289.2 117.92 286.32 120.352C283.44 122.784 279.056 124 273.168 124H261.648ZM330.964 78.592C336.98 78.592 341.364 80 344.116 82.816C346.868 85.568 348.244 89.92 348.244 95.872V121.504C348.244 123.168 347.412 124 345.748 124C344.084 124 343.252 123.168 343.252 121.504V95.872C343.252 91.328 342.356 88.16 340.564 86.368C338.772 84.512 335.572 83.584 330.964 83.584H328.276C323.284 83.584 319.444 84.384 316.756 85.984C314.068 87.584 312.468 89.984 311.956 93.184C311.956 93.376 311.892 93.664 311.764 94.048V121.504C311.764 123.168 310.932 124 309.268 124C307.604 124 306.772 123.168 306.772 121.504V59.968C306.772 58.304 307.604 57.472 309.268 57.472C310.932 57.472 311.764 58.304 311.764 59.968V84.448C315.156 80.544 320.66 78.592 328.276 78.592H330.964ZM369.016 103.264V106.816C369.016 111.36 369.912 114.528 371.704 116.32C373.56 118.112 376.76 119.008 381.304 119.008H389.176C393.272 119.008 396.216 118.496 398.008 117.472C399.864 116.384 400.952 114.56 401.272 112C401.592 110.4 402.456 109.6 403.864 109.6C404.76 109.6 405.4 109.824 405.784 110.272C406.232 110.72 406.392 111.36 406.264 112.192C405.816 116.224 404.184 119.2 401.368 121.12C398.616 123.04 394.552 124 389.176 124H381.304C375.352 124 370.968 122.624 368.152 119.872C365.4 117.12 364.024 112.768 364.024 106.816V95.968C364.024 89.952 365.4 85.568 368.152 82.816C370.968 80 375.352 78.624 381.304 78.688H389.176C395.128 78.688 399.48 80.096 402.232 82.912C405.048 85.664 406.456 90.016 406.456 95.968V100.768C406.456 102.432 405.624 103.264 403.96 103.264H369.016ZM369.016 98.272H401.464V95.968C401.464 91.36 400.568 88.16 398.776 86.368C396.984 84.576 393.784 83.68 389.176 83.68H381.304C376.696 83.616 373.496 84.48 371.704 86.272C369.912 88.064 369.016 91.296 369.016 95.968V98.272ZM439.054 124C433.102 124 428.718 122.624 425.902 119.872C423.15 117.056 421.774 112.672 421.774 106.72V95.872C421.774 89.856 423.15 85.472 425.902 82.72C428.718 79.968 433.102 78.624 439.054 78.688H446.926C451.662 78.688 455.246 79.488 457.678 81.088C460.174 82.688 461.646 85.184 462.094 88.576C462.222 89.344 462.062 89.984 461.614 90.496C461.166 90.944 460.526 91.168 459.694 91.168C458.286 91.168 457.422 90.4 457.102 88.864C456.718 86.944 455.758 85.6 454.222 84.832C452.686 84.064 450.254 83.68 446.926 83.68H439.054C434.446 83.616 431.246 84.48 429.454 86.272C427.662 88.064 426.766 91.264 426.766 95.872V106.72C426.766 111.328 427.662 114.528 429.454 116.32C431.31 118.112 434.51 119.008 439.054 119.008H446.926C450.254 119.008 452.686 118.624 454.222 117.856C455.758 117.088 456.718 115.744 457.102 113.824C457.422 112.288 458.286 111.52 459.694 111.52C460.526 111.52 461.166 111.776 461.614 112.288C462.062 112.736 462.222 113.344 462.094 114.112C461.646 117.504 460.174 120 457.678 121.6C455.246 123.2 451.662 124 446.926 124H439.054ZM511.013 119.68C511.525 120.32 511.781 120.896 511.781 121.408C511.781 122.048 511.429 122.656 510.725 123.232C510.085 123.744 509.541 124 509.093 124C508.517 124 507.909 123.68 507.269 123.04L487.877 101.152L481.733 106.528V121.504C481.733 123.168 480.901 124 479.237 124C477.573 124 476.741 123.168 476.741 121.504V59.968C476.741 58.304 477.573 57.472 479.237 57.472C480.901 57.472 481.733 58.304 481.733 59.968V99.808L506.117 78.88C506.757 78.368 507.333 78.112 507.845 78.112C508.485 78.112 509.093 78.464 509.669 79.168C510.181 79.808 510.437 80.352 510.437 80.8C510.437 81.376 510.085 82.016 509.381 82.72L491.717 97.984L511.013 119.68ZM535.832 124C531.288 124 527.928 122.944 525.752 120.832C523.64 118.72 522.584 115.424 522.584 110.944V59.968C522.584 58.304 523.416 57.472 525.08 57.472C526.744 57.472 527.576 58.304 527.576 59.968V110.944C527.576 114.08 528.152 116.224 529.304 117.376C530.456 118.464 532.6 119.008 535.736 119.008C537.464 119.008 538.328 119.84 538.328 121.504C538.328 122.336 538.104 122.976 537.656 123.424C537.208 123.808 536.6 124 535.832 124ZM552.924 124C552.156 124 551.548 123.808 551.1 123.424C550.652 122.976 550.428 122.336 550.428 121.504V81.184C550.428 80.352 550.652 79.744 551.1 79.36C551.548 78.912 552.156 78.688 552.924 78.688C554.588 78.688 555.42 79.52 555.42 81.184V121.504C555.42 123.168 554.588 124 552.924 124ZM551.868 69.952C550.78 69.952 549.948 69.664 549.372 69.088C548.796 68.512 548.508 67.68 548.508 66.592V64.48C548.508 63.392 548.796 62.56 549.372 61.984C549.948 61.408 550.78 61.12 551.868 61.12H554.076C556.188 61.12 557.244 62.24 557.244 64.48V66.592C557.244 68.832 556.188 69.952 554.076 69.952H551.868ZM583.191 123.904C579.287 123.904 576.279 123.072 574.167 121.408C572.119 119.744 570.903 117.184 570.519 113.728C570.455 112.896 570.615 112.256 570.999 111.808C571.447 111.296 572.087 111.04 572.919 111.04C573.687 111.04 574.263 111.264 574.647 111.712C575.095 112.096 575.383 112.704 575.511 113.536C575.767 115.52 576.471 116.928 577.623 117.76C578.839 118.528 580.695 118.912 583.191 118.912H598.935C601.943 118.912 603.991 118.368 605.079 117.28C606.231 116.128 606.807 114.048 606.807 111.04C606.807 108.032 606.231 105.984 605.079 104.896C603.991 103.744 601.943 103.168 598.935 103.168H583.479C579.255 103.168 576.119 102.176 574.071 100.192C572.087 98.208 571.095 95.136 571.095 90.976C571.095 86.752 572.087 83.648 574.071 81.664C576.119 79.616 579.255 78.592 583.479 78.592H598.455C605.751 78.592 609.783 81.792 610.551 88.192C610.615 89.024 610.423 89.664 609.975 90.112C609.591 90.56 608.983 90.784 608.151 90.784C607.383 90.784 606.775 90.592 606.327 90.208C605.943 89.824 605.655 89.216 605.463 88.384C605.207 86.592 604.535 85.344 603.447 84.64C602.423 83.936 600.759 83.584 598.455 83.584H583.479C580.663 83.584 578.711 84.128 577.623 85.216C576.599 86.24 576.087 88.16 576.087 90.976C576.087 93.728 576.599 95.616 577.623 96.64C578.711 97.664 580.663 98.176 583.479 98.176H598.935C603.351 98.176 606.583 99.232 608.631 101.344C610.743 103.456 611.799 106.688 611.799 111.04C611.799 115.456 610.743 118.72 608.631 120.832C606.583 122.88 603.351 123.904 598.935 123.904H583.191ZM645.362 119.008C647.09 119.008 647.954 119.84 647.954 121.504C647.954 123.168 647.09 124 645.362 124C639.474 124 635.154 122.656 632.402 119.968C629.714 117.28 628.37 112.992 628.37 107.104V83.68H622.61C620.946 83.68 620.114 82.848 620.114 81.184C620.114 79.52 620.946 78.688 622.61 78.688H628.37V68.32C628.37 66.656 629.202 65.824 630.866 65.824C632.53 65.824 633.362 66.656 633.362 68.32V78.688H645.458C647.122 78.688 647.954 79.52 647.954 81.184C647.954 82.848 647.122 83.68 645.458 83.68H633.362V107.104C633.362 111.584 634.226 114.688 635.954 116.416C637.746 118.144 640.882 119.008 645.362 119.008ZM662.011 124C661.115 124 660.411 123.776 659.899 123.328C659.451 122.816 659.227 122.112 659.227 121.216V119.392C659.227 118.496 659.451 117.824 659.899 117.376C660.411 116.864 661.115 116.608 662.011 116.608H663.835C665.627 116.608 666.523 117.536 666.523 119.392V121.216C666.523 123.072 665.627 124 663.835 124H662.011ZM751.548 62.272C752.444 62.272 753.116 62.496 753.564 62.944C754.012 63.328 754.236 63.84 754.236 64.48C754.236 64.672 754.172 65.024 754.044 65.536L735.612 122.08C735.228 123.36 734.428 124 733.212 124H732.732C731.452 124 730.62 123.36 730.236 122.08L714.492 71.296L698.652 122.08C698.396 122.72 698.076 123.2 697.692 123.52C697.372 123.84 696.86 124 696.156 124H695.676C694.524 124 693.756 123.36 693.372 122.08L674.94 65.536C674.812 65.152 674.748 64.832 674.748 64.576C674.748 64 674.94 63.488 675.324 63.04C675.708 62.592 676.252 62.336 676.956 62.272H677.436C678.652 62.272 679.388 62.848 679.644 64L696.156 114.304L711.612 64.096C711.996 62.816 712.86 62.176 714.204 62.176H714.876C716.156 62.176 716.988 62.816 717.372 64.096L732.924 114.496L749.34 64C749.724 62.848 750.46 62.272 751.548 62.272ZM773.835 124C767.819 124 763.435 122.624 760.683 119.872C757.931 117.12 756.555 112.768 756.555 106.816V95.968C756.555 89.888 757.931 85.472 760.683 82.72C763.435 79.968 767.819 78.624 773.835 78.688H781.707C787.723 78.688 792.107 80.064 794.859 82.816C797.611 85.568 798.987 89.952 798.987 95.968V106.72C798.987 112.736 797.611 117.12 794.859 119.872C792.107 122.624 787.723 124 781.707 124H773.835ZM781.707 119.008C786.251 119.008 789.419 118.112 791.211 116.32C793.067 114.464 793.995 111.264 793.995 106.72V95.968C793.995 91.424 793.067 88.256 791.211 86.464C789.419 84.608 786.251 83.68 781.707 83.68H773.835C769.291 83.616 766.091 84.512 764.235 86.368C762.443 88.16 761.547 91.36 761.547 95.968V106.816C761.547 111.36 762.443 114.528 764.235 116.32C766.091 118.112 769.291 119.008 773.835 119.008H781.707ZM839.073 78.688C840.737 78.688 841.569 79.52 841.569 81.184C841.569 82.848 840.737 83.68 839.073 83.68C833.313 83.68 828.865 84.992 825.729 87.616C822.593 90.24 820.897 93.984 820.641 98.848C820.641 99.168 820.609 99.392 820.545 99.52V121.504C820.545 123.168 819.713 124 818.049 124C816.385 124 815.553 123.168 815.553 121.504V81.184C815.553 79.52 816.385 78.688 818.049 78.688C819.713 78.688 820.545 79.52 820.545 81.184V88.864C822.209 85.6 824.609 83.104 827.745 81.376C830.945 79.584 834.721 78.688 839.073 78.688ZM885.919 119.68C886.431 120.32 886.687 120.896 886.687 121.408C886.687 122.048 886.335 122.656 885.631 123.232C884.991 123.744 884.447 124 883.999 124C883.423 124 882.815 123.68 882.175 123.04L862.783 101.152L856.639 106.528V121.504C856.639 123.168 855.807 124 854.143 124C852.479 124 851.647 123.168 851.647 121.504V59.968C851.647 58.304 852.479 57.472 854.143 57.472C855.807 57.472 856.639 58.304 856.639 59.968V99.808L881.023 78.88C881.663 78.368 882.239 78.112 882.751 78.112C883.391 78.112 883.999 78.464 884.575 79.168C885.087 79.808 885.343 80.352 885.343 80.8C885.343 81.376 884.991 82.016 884.287 82.72L866.623 97.984L885.919 119.68ZM907.379 123.904C903.475 123.904 900.467 123.072 898.355 121.408C896.307 119.744 895.091 117.184 894.707 113.728C894.643 112.896 894.803 112.256 895.187 111.808C895.635 111.296 896.275 111.04 897.107 111.04C897.875 111.04 898.451 111.264 898.835 111.712C899.283 112.096 899.571 112.704 899.699 113.536C899.955 115.52 900.659 116.928 901.811 117.76C903.027 118.528 904.883 118.912 907.379 118.912H923.123C926.131 118.912 928.179 118.368 929.267 117.28C930.419 116.128 930.995 114.048 930.995 111.04C930.995 108.032 930.419 105.984 929.267 104.896C928.179 103.744 926.131 103.168 923.123 103.168H907.667C903.443 103.168 900.307 102.176 898.259 100.192C896.275 98.208 895.283 95.136 895.283 90.976C895.283 86.752 896.275 83.648 898.259 81.664C900.307 79.616 903.443 78.592 907.667 78.592H922.643C929.939 78.592 933.971 81.792 934.739 88.192C934.803 89.024 934.611 89.664 934.163 90.112C933.779 90.56 933.171 90.784 932.339 90.784C931.571 90.784 930.963 90.592 930.515 90.208C930.131 89.824 929.843 89.216 929.651 88.384C929.395 86.592 928.723 85.344 927.635 84.64C926.611 83.936 924.947 83.584 922.643 83.584H907.667C904.851 83.584 902.899 84.128 901.811 85.216C900.787 86.24 900.275 88.16 900.275 90.976C900.275 93.728 900.787 95.616 901.811 96.64C902.899 97.664 904.851 98.176 907.667 98.176H923.123C927.539 98.176 930.771 99.232 932.819 101.344C934.931 103.456 935.987 106.688 935.987 111.04C935.987 115.456 934.931 118.72 932.819 120.832C930.771 122.88 927.539 123.904 923.123 123.904H907.379Z" fill="black"/>
<path d="M246.48 119.2L247.187 118.493L247.187 118.493L246.48 119.2ZM246.384 66.976L245.677 66.2689L245.677 66.2689L246.384 66.976ZM286.32 65.92L285.665 66.6757L285.675 66.684L286.32 65.92ZM291.12 77.728L290.122 77.7867L290.122 77.7957L290.123 77.8047L291.12 77.728ZM286.128 77.728L285.13 77.7934L285.131 77.8047L286.128 77.728ZM282.864 69.568L282.224 70.3362L282.231 70.3426L282.239 70.3489L282.864 69.568ZM252.72 68.608L252.316 67.693L252.306 67.6976L252.72 68.608ZM248.112 73.312L249.022 73.7258L249.027 73.7156L248.112 73.312ZM248.112 112.96L247.197 113.364L247.202 113.374L248.112 112.96ZM252.72 117.568L252.306 118.478L252.316 118.483L252.72 117.568ZM282.864 116.704L282.239 115.923L282.239 115.923L282.864 116.704ZM286.128 108.448L285.131 108.371L285.13 108.384L286.128 108.448ZM291.12 108.544L290.123 108.47L290.122 108.478L290.122 108.485L291.12 108.544ZM261.648 123C254.864 123 250.121 121.427 247.187 118.493L245.773 119.907C249.239 123.373 254.608 125 261.648 125V123ZM247.187 118.493C244.253 115.559 242.68 110.816 242.68 104.032H240.68C240.68 111.072 242.307 116.441 245.773 119.907L247.187 118.493ZM242.68 104.032V82.144H240.68V104.032H242.68ZM242.68 82.144C242.68 75.2859 244.226 70.5483 247.091 67.6831L245.677 66.2689C242.27 69.6757 240.68 75.0501 240.68 82.144H242.68ZM247.091 67.6831C250.025 64.7494 254.768 63.176 261.552 63.176V61.176C254.512 61.176 249.143 62.8026 245.677 66.2689L247.091 67.6831ZM261.552 63.176H273.168V61.176H261.552V63.176ZM273.168 63.176C278.941 63.176 283.043 64.4035 285.665 66.6757L286.975 65.1643C283.837 62.4445 279.171 61.176 273.168 61.176V63.176ZM285.675 66.684C288.267 68.8729 289.811 72.4971 290.122 77.7867L292.118 77.6693C291.789 72.0789 290.133 67.8311 286.965 65.156L285.675 66.684ZM290.123 77.8047C290.174 78.4717 290.019 78.7585 289.885 78.8929C289.735 79.0431 289.391 79.224 288.624 79.224V81.224C289.649 81.224 290.617 80.9889 291.299 80.3071C291.997 79.6095 292.194 78.6483 292.117 77.6513L290.123 77.8047ZM288.624 79.224C288.037 79.224 287.731 79.0691 287.555 78.8929C287.367 78.7043 287.178 78.3436 287.125 77.6513L285.131 77.8047C285.206 78.7763 285.497 79.6637 286.141 80.3071C286.797 80.9629 287.675 81.224 288.624 81.224V79.224ZM287.126 77.6626C286.862 73.6404 285.729 70.5794 283.489 68.7871L282.239 70.3489C283.839 71.6286 284.882 74.0076 285.13 77.7934L287.126 77.6626ZM283.504 68.7998C281.307 66.9689 277.776 66.168 273.168 66.168V68.168C277.648 68.168 280.581 68.9671 282.224 70.3362L283.504 68.7998ZM273.168 66.168H261.552V68.168H273.168V66.168ZM261.552 66.168C257.771 66.168 254.671 66.6544 252.316 67.6931L253.124 69.5229C255.121 68.6416 257.909 68.168 261.552 68.168V66.168ZM252.306 67.6976C249.964 68.762 248.253 70.5139 247.197 72.9084L249.027 73.7156C249.891 71.7581 251.252 70.3739 253.134 69.5184L252.306 67.6976ZM247.202 72.8982C246.157 75.1967 245.672 78.3041 245.672 82.144H247.672C247.672 78.4318 248.147 75.6513 249.022 73.7258L247.202 72.8982ZM245.672 82.144V104.032H247.672V82.144H245.672ZM245.672 104.032C245.672 107.874 246.158 111.008 247.197 113.364L249.027 112.556C248.146 110.56 247.672 107.742 247.672 104.032H245.672ZM247.202 113.374C248.262 115.706 249.974 117.418 252.306 118.478L253.134 116.658C251.242 115.798 249.882 114.438 249.022 112.546L247.202 113.374ZM252.316 118.483C254.672 119.522 257.806 120.008 261.648 120.008V118.008C257.938 118.008 255.12 117.534 253.124 116.653L252.316 118.483ZM261.648 120.008H273.168V118.008H261.648V120.008ZM273.168 120.008C277.77 120.008 281.294 119.241 283.489 117.485L282.239 115.923C280.594 117.239 277.654 118.008 273.168 118.008V120.008ZM283.489 117.485C285.732 115.69 286.863 112.593 287.126 108.512L285.13 108.384C284.881 112.239 283.836 114.646 282.239 115.923L283.489 117.485ZM287.125 108.525C287.178 107.832 287.367 107.472 287.555 107.283C287.731 107.107 288.037 106.952 288.624 106.952V104.952C287.675 104.952 286.797 105.213 286.141 105.869C285.497 106.512 285.206 107.4 285.131 108.371L287.125 108.525ZM288.624 106.952C289.382 106.952 289.72 107.136 289.872 107.294C290.016 107.443 290.175 107.761 290.123 108.47L292.117 108.618C292.193 107.599 292 106.621 291.312 105.906C290.632 105.2 289.658 104.952 288.624 104.952V106.952ZM290.122 108.485C289.811 113.775 288.267 117.399 285.675 119.588L286.965 121.116C290.133 118.441 291.789 114.193 292.118 108.603L290.122 108.485ZM285.675 119.588C283.053 121.802 278.946 123 273.168 123V125C279.166 125 283.827 123.766 286.965 121.116L285.675 119.588ZM273.168 123H261.648V125H273.168V123ZM344.116 82.816L343.401 83.515L343.409 83.5231L344.116 82.816ZM340.564 86.368L339.844 87.0626L339.85 87.0689L339.857 87.0751L340.564 86.368ZM316.756 85.984L317.267 86.8433L317.267 86.8433L316.756 85.984ZM311.956 93.184L310.968 93.026L310.956 93.1045V93.184H311.956ZM311.764 94.048L310.815 93.7318L310.764 93.8857V94.048H311.764ZM311.764 84.448H310.764V87.1236L312.519 85.1039L311.764 84.448ZM330.964 79.592C336.85 79.592 340.916 80.9726 343.401 83.5149L344.831 82.1171C341.811 79.0274 337.109 77.592 330.964 77.592V79.592ZM343.409 83.5231C345.894 86.0086 347.244 90.0476 347.244 95.872H349.244C349.244 89.7924 347.841 85.1274 344.823 82.1089L343.409 83.5231ZM347.244 95.872V121.504H349.244V95.872H347.244ZM347.244 121.504C347.244 122.182 347.075 122.507 346.913 122.669C346.75 122.831 346.426 123 345.748 123V125C346.734 125 347.657 124.753 348.327 124.083C348.997 123.413 349.244 122.49 349.244 121.504H347.244ZM345.748 123C345.07 123 344.745 122.831 344.583 122.669C344.421 122.507 344.252 122.182 344.252 121.504H342.252C342.252 122.49 342.499 123.413 343.169 124.083C343.838 124.753 344.762 125 345.748 125V123ZM344.252 121.504V95.872H342.252V121.504H344.252ZM344.252 95.872C344.252 91.2552 343.353 87.7428 341.271 85.6609L339.857 87.0751C341.359 88.5772 342.252 91.4008 342.252 95.872H344.252ZM341.283 85.6734C339.2 83.5157 335.647 82.584 330.964 82.584V84.584C335.497 84.584 338.344 85.5083 339.844 87.0626L341.283 85.6734ZM330.964 82.584H328.276V84.584H330.964V82.584ZM328.276 82.584C323.201 82.584 319.153 83.3931 316.244 85.1247L317.267 86.8433C319.734 85.3748 323.367 84.584 328.276 84.584V82.584ZM316.244 85.1247C313.291 86.8825 311.525 89.5454 310.968 93.026L312.943 93.342C313.41 90.4226 314.844 88.2855 317.267 86.8433L316.244 85.1247ZM310.956 93.184C310.956 93.1792 310.955 93.2207 310.932 93.3271C310.909 93.4278 310.872 93.5613 310.815 93.7318L312.712 94.3642C312.845 93.9655 312.956 93.5476 312.956 93.184H310.956ZM310.764 94.048V121.504H312.764V94.048H310.764ZM310.764 121.504C310.764 122.182 310.595 122.507 310.433 122.669C310.27 122.831 309.946 123 309.268 123V125C310.254 125 311.177 124.753 311.847 124.083C312.517 123.413 312.764 122.49 312.764 121.504H310.764ZM309.268 123C308.59 123 308.265 122.831 308.103 122.669C307.941 122.507 307.772 122.182 307.772 121.504H305.772C305.772 122.49 306.019 123.413 306.689 124.083C307.358 124.753 308.282 125 309.268 125V123ZM307.772 121.504V59.968H305.772V121.504H307.772ZM307.772 59.968C307.772 59.2901 307.941 58.9654 308.103 58.8031C308.265 58.6408 308.59 58.472 309.268 58.472V56.472C308.282 56.472 307.358 56.7192 306.689 57.3889C306.019 58.0586 305.772 58.9819 305.772 59.968H307.772ZM309.268 58.472C309.946 58.472 310.27 58.6408 310.433 58.8031C310.595 58.9654 310.764 59.2901 310.764 59.968H312.764C312.764 58.9819 312.517 58.0586 311.847 57.3889C311.177 56.7192 310.254 56.472 309.268 56.472V58.472ZM310.764 59.968V84.448H312.764V59.968H310.764ZM312.519 85.1039C315.645 81.5053 320.81 79.592 328.276 79.592V77.592C320.51 77.592 314.666 79.5827 311.009 83.7921L312.519 85.1039ZM328.276 79.592H330.964V77.592H328.276V79.592ZM369.016 103.264V102.264H368.016V103.264H369.016ZM371.704 116.32L370.997 117.027L371.003 117.033L371.009 117.039L371.704 116.32ZM398.008 117.472L398.504 118.34L398.513 118.335L398.008 117.472ZM401.272 112L400.291 111.804L400.284 111.84L400.279 111.876L401.272 112ZM405.784 110.272L405.025 110.923L405.049 110.952L405.077 110.979L405.784 110.272ZM406.264 112.192L405.275 112.04L405.272 112.061L405.27 112.082L406.264 112.192ZM401.368 121.12L400.804 120.294L400.796 120.3L401.368 121.12ZM368.152 119.872L367.445 120.579L367.453 120.587L368.152 119.872ZM368.152 82.816L367.445 82.1089L367.445 82.1089L368.152 82.816ZM381.304 78.688L381.293 79.688H381.304V78.688ZM402.232 82.912L401.517 83.6109L401.525 83.6192L401.533 83.6272L402.232 82.912ZM369.016 98.272H368.016V99.272H369.016V98.272ZM401.464 98.272V99.272H402.464V98.272H401.464ZM381.304 83.68L381.29 84.68H381.304V83.68ZM371.704 86.272L372.411 86.9791L372.411 86.9791L371.704 86.272ZM368.016 103.264V106.816H370.016V103.264H368.016ZM368.016 106.816C368.016 111.433 368.915 114.945 370.997 117.027L372.411 115.613C370.909 114.111 370.016 111.287 370.016 106.816H368.016ZM371.009 117.039C373.15 119.107 376.682 120.008 381.304 120.008V118.008C376.838 118.008 373.969 117.117 372.398 115.601L371.009 117.039ZM381.304 120.008H389.176V118.008H381.304V120.008ZM389.176 120.008C393.306 120.008 396.473 119.5 398.504 118.34L397.512 116.604C395.958 117.492 393.238 118.008 389.176 118.008V120.008ZM398.513 118.335C400.692 117.057 401.914 114.924 402.264 112.124L400.279 111.876C399.989 114.196 399.035 115.711 397.502 116.609L398.513 118.335ZM402.252 112.196C402.387 111.525 402.611 111.145 402.839 110.934C403.051 110.737 403.359 110.6 403.864 110.6V108.6C402.96 108.6 402.132 108.863 401.48 109.466C400.844 110.055 400.477 110.875 400.291 111.804L402.252 112.196ZM403.864 110.6C404.62 110.6 404.911 110.791 405.025 110.923L406.543 109.621C405.888 108.857 404.899 108.6 403.864 108.6V110.6ZM405.077 110.979C405.229 111.132 405.372 111.41 405.275 112.04L407.252 112.344C407.411 111.31 407.234 110.308 406.491 109.565L405.077 110.979ZM405.27 112.082C404.847 115.884 403.333 118.57 400.804 120.294L401.931 121.946C405.034 119.83 406.784 116.564 407.258 112.302L405.27 112.082ZM400.796 120.3C398.285 122.051 394.46 123 389.176 123V125C394.643 125 398.947 124.029 401.94 121.94L400.796 120.3ZM389.176 123H381.304V125H389.176V123ZM381.304 123C375.482 123 371.403 121.651 368.851 119.157L367.453 120.587C370.532 123.597 375.222 125 381.304 125V123ZM368.859 119.165C366.373 116.679 365.024 112.64 365.024 106.816H363.024C363.024 112.896 364.426 117.561 367.445 120.579L368.859 119.165ZM365.024 106.816V95.968H363.024V106.816H365.024ZM365.024 95.968C365.024 90.0759 366.375 86.007 368.859 83.5231L367.445 82.1089C364.424 85.129 363.024 89.8281 363.024 95.968H365.024ZM368.859 83.5231C371.408 80.9739 375.478 79.6254 381.293 79.6879L381.315 77.6881C375.226 77.6226 370.527 79.0261 367.445 82.1089L368.859 83.5231ZM381.304 79.688H389.176V77.688H381.304V79.688ZM389.176 79.688C394.995 79.688 399.03 81.0669 401.517 83.6109L402.947 82.2131C399.929 79.1251 395.261 77.688 389.176 77.688V79.688ZM401.533 83.6272C404.077 86.1134 405.456 90.149 405.456 95.968H407.456C407.456 89.883 406.019 85.2146 402.931 82.1968L401.533 83.6272ZM405.456 95.968V100.768H407.456V95.968H405.456ZM405.456 100.768C405.456 101.446 405.287 101.771 405.125 101.933C404.962 102.095 404.638 102.264 403.96 102.264V104.264C404.946 104.264 405.869 104.017 406.539 103.347C407.209 102.677 407.456 101.754 407.456 100.768H405.456ZM403.96 102.264H369.016V104.264H403.96V102.264ZM369.016 99.272H401.464V97.272H369.016V99.272ZM402.464 98.272V95.968H400.464V98.272H402.464ZM402.464 95.968C402.464 91.292 401.567 87.7447 399.483 85.6609L398.069 87.0751C399.569 88.5753 400.464 91.428 400.464 95.968H402.464ZM399.483 85.6609C397.399 83.5771 393.852 82.68 389.176 82.68V84.68C393.716 84.68 396.568 85.5749 398.069 87.0751L399.483 85.6609ZM389.176 82.68H381.304V84.68H389.176V82.68ZM381.318 82.6801C376.641 82.6151 373.086 83.4754 370.997 85.5649L372.411 86.9791C373.905 85.4846 376.75 84.6168 381.29 84.6799L381.318 82.6801ZM370.997 85.5649C368.911 87.6505 368.016 91.2328 368.016 95.968H370.016C370.016 91.3592 370.912 88.4775 372.411 86.9791L370.997 85.5649ZM368.016 95.968V98.272H370.016V95.968H368.016ZM425.902 119.872L425.187 120.571L425.195 120.579L425.203 120.587L425.902 119.872ZM425.902 82.72L425.203 82.0048L425.195 82.0129L425.902 82.72ZM439.054 78.688L439.043 79.688H439.054V78.688ZM457.678 81.088L457.128 81.9235L457.138 81.9299L457.678 81.088ZM462.094 88.576L461.102 88.7069L461.105 88.7237L461.107 88.7404L462.094 88.576ZM461.614 90.496L462.321 91.2031L462.344 91.1796L462.366 91.1545L461.614 90.496ZM457.102 88.864L456.121 89.0601L456.123 89.068L457.102 88.864ZM454.222 84.832L453.775 85.7264L453.775 85.7264L454.222 84.832ZM439.054 83.68L439.04 84.68H439.054V83.68ZM429.454 86.272L430.161 86.9791L430.161 86.9791L429.454 86.272ZM429.454 116.32L428.747 117.027L428.753 117.033L428.759 117.039L429.454 116.32ZM454.222 117.856L453.775 116.962L453.775 116.962L454.222 117.856ZM457.102 113.824L456.123 113.62L456.121 113.628L457.102 113.824ZM461.614 112.288L460.861 112.947L460.883 112.972L460.907 112.995L461.614 112.288ZM462.094 114.112L461.107 113.948L461.105 113.964L461.102 113.981L462.094 114.112ZM457.678 121.6L457.138 120.758L457.128 120.765L457.678 121.6ZM439.054 123C433.232 123 429.153 121.651 426.601 119.157L425.203 120.587C428.282 123.597 432.972 125 439.054 125V123ZM426.617 119.173C424.122 116.62 422.774 112.542 422.774 106.72H420.774C420.774 112.802 422.177 117.492 425.187 120.571L426.617 119.173ZM422.774 106.72V95.872H420.774V106.72H422.774ZM422.774 95.872C422.774 89.9799 424.125 85.911 426.609 83.4271L425.195 82.0129C422.174 85.033 420.774 89.7321 420.774 95.872H422.774ZM426.601 83.4352C429.149 80.9445 433.222 79.6254 439.043 79.6879L439.065 77.6881C432.981 77.6226 428.286 78.9915 425.203 82.0048L426.601 83.4352ZM439.054 79.688H446.926V77.688H439.054V79.688ZM446.926 79.688C451.577 79.688 454.932 80.4788 457.128 81.9234L458.227 80.2526C455.559 78.4972 451.746 77.688 446.926 77.688V79.688ZM457.138 81.9299C459.347 83.3456 460.686 85.5568 461.102 88.7069L463.085 88.4451C462.605 84.8112 461.001 82.0304 458.217 80.2461L457.138 81.9299ZM461.107 88.7404C461.194 89.2608 461.082 89.5851 460.861 89.8375L462.366 91.1545C463.041 90.3829 463.249 89.4272 463.08 88.4116L461.107 88.7404ZM460.907 89.7889C460.699 89.9961 460.347 90.168 459.694 90.168V92.168C460.705 92.168 461.632 91.8919 462.321 91.2031L460.907 89.7889ZM459.694 90.168C459.179 90.168 458.865 90.0322 458.654 89.8446C458.431 89.6464 458.212 89.2918 458.081 88.66L456.123 89.068C456.311 89.9722 456.684 90.7696 457.325 91.3394C457.978 91.9198 458.801 92.168 459.694 92.168V90.168ZM458.082 88.6679C457.647 86.4934 456.522 84.8641 454.669 83.9376L453.775 85.7264C454.993 86.3359 455.788 87.3946 456.121 89.0601L458.082 88.6679ZM454.669 83.9376C452.917 83.0614 450.29 82.68 446.926 82.68V84.68C450.218 84.68 452.455 85.0666 453.775 85.7264L454.669 83.9376ZM446.926 82.68H439.054V84.68H446.926V82.68ZM439.068 82.6801C434.391 82.6151 430.836 83.4754 428.747 85.5649L430.161 86.9791C431.655 85.4846 434.5 84.6168 439.04 84.6799L439.068 82.6801ZM428.747 85.5649C426.663 87.6487 425.766 91.196 425.766 95.872H427.766C427.766 91.332 428.661 88.4793 430.161 86.9791L428.747 85.5649ZM425.766 95.872V106.72H427.766V95.872H425.766ZM425.766 106.72C425.766 111.396 426.663 114.943 428.747 117.027L430.161 115.613C428.661 114.113 427.766 111.26 427.766 106.72H425.766ZM428.759 117.039C430.9 119.107 434.432 120.008 439.054 120.008V118.008C434.588 118.008 431.719 117.117 430.148 115.601L428.759 117.039ZM439.054 120.008H446.926V118.008H439.054V120.008ZM446.926 120.008C450.29 120.008 452.917 119.627 454.669 118.75L453.775 116.962C452.455 117.621 450.218 118.008 446.926 118.008V120.008ZM454.669 118.75C456.522 117.824 457.647 116.195 458.082 114.02L456.121 113.628C455.788 115.293 454.993 116.352 453.775 116.962L454.669 118.75ZM458.081 114.028C458.212 113.396 458.431 113.042 458.654 112.843C458.865 112.656 459.179 112.52 459.694 112.52V110.52C458.801 110.52 457.978 110.768 457.325 111.349C456.684 111.918 456.311 112.716 456.123 113.62L458.081 114.028ZM459.694 112.52C460.307 112.52 460.645 112.699 460.861 112.947L462.366 111.629C461.687 110.853 460.744 110.52 459.694 110.52V112.52ZM460.907 112.995C461.073 113.162 461.196 113.416 461.107 113.948L463.08 114.276C463.248 113.272 463.05 112.31 462.321 111.581L460.907 112.995ZM461.102 113.981C460.686 117.131 459.347 119.342 457.138 120.758L458.217 122.442C461.001 120.658 462.605 117.877 463.085 114.243L461.102 113.981ZM457.128 120.765C454.932 122.209 451.577 123 446.926 123V125C451.746 125 455.559 124.191 458.227 122.435L457.128 120.765ZM446.926 123H439.054V125H446.926V123ZM511.013 119.68L511.793 119.055L511.777 119.035L511.76 119.015L511.013 119.68ZM510.725 123.232L511.349 124.013L511.358 124.006L510.725 123.232ZM507.269 123.04L506.52 123.703L506.54 123.726L506.561 123.747L507.269 123.04ZM487.877 101.152L488.625 100.489L487.966 99.745L487.218 100.399L487.877 101.152ZM481.733 106.528L481.074 105.775L480.733 106.074V106.528H481.733ZM481.733 99.808H480.733V101.984L482.384 100.567L481.733 99.808ZM506.117 78.88L505.492 78.0991L505.478 78.1099L505.465 78.1212L506.117 78.88ZM509.669 79.168L510.449 78.5433L510.442 78.5348L509.669 79.168ZM509.381 82.72L510.034 83.4766L510.062 83.4528L510.088 83.4271L509.381 82.72ZM491.717 97.984L491.063 97.2274L490.295 97.8906L490.969 98.6486L491.717 97.984ZM510.232 120.305C510.681 120.867 510.781 121.224 510.781 121.408H512.781C512.781 120.568 512.368 119.773 511.793 119.055L510.232 120.305ZM510.781 121.408C510.781 121.637 510.665 121.989 510.091 122.458L511.358 124.006C512.192 123.323 512.781 122.459 512.781 121.408H510.781ZM510.1 122.451C509.508 122.925 509.19 123 509.093 123V125C509.891 125 510.661 124.563 511.349 124.013L510.1 122.451ZM509.093 123C508.899 123 508.532 122.889 507.976 122.333L506.561 123.747C507.285 124.471 508.134 125 509.093 125V123ZM508.017 122.377L488.625 100.489L487.128 101.815L506.52 123.703L508.017 122.377ZM487.218 100.399L481.074 105.775L482.391 107.281L488.535 101.905L487.218 100.399ZM480.733 106.528V121.504H482.733V106.528H480.733ZM480.733 121.504C480.733 122.182 480.564 122.507 480.401 122.669C480.239 122.831 479.914 123 479.237 123V125C480.223 125 481.146 124.753 481.816 124.083C482.485 123.413 482.733 122.49 482.733 121.504H480.733ZM479.237 123C478.559 123 478.234 122.831 478.072 122.669C477.909 122.507 477.741 122.182 477.741 121.504H475.741C475.741 122.49 475.988 123.413 476.657 124.083C477.327 124.753 478.25 125 479.237 125V123ZM477.741 121.504V59.968H475.741V121.504H477.741ZM477.741 59.968C477.741 59.2901 477.909 58.9654 478.072 58.8031C478.234 58.6408 478.559 58.472 479.237 58.472V56.472C478.25 56.472 477.327 56.7192 476.657 57.3889C475.988 58.0586 475.741 58.9819 475.741 59.968H477.741ZM479.237 58.472C479.914 58.472 480.239 58.6408 480.401 58.8031C480.564 58.9654 480.733 59.2901 480.733 59.968H482.733C482.733 58.9819 482.485 58.0586 481.816 57.3889C481.146 56.7192 480.223 56.472 479.237 56.472V58.472ZM480.733 59.968V99.808H482.733V59.968H480.733ZM482.384 100.567L506.768 79.6388L505.465 78.1212L481.081 99.0492L482.384 100.567ZM506.741 79.6609C507.303 79.2112 507.661 79.112 507.845 79.112V77.112C507.004 77.112 506.21 77.5248 505.492 78.0991L506.741 79.6609ZM507.845 79.112C508.074 79.112 508.425 79.2274 508.895 79.8012L510.442 78.5348C509.76 77.7006 508.895 77.112 507.845 77.112V79.112ZM508.888 79.7927C509.361 80.3847 509.437 80.7025 509.437 80.8H511.437C511.437 80.0015 511 79.2313 510.449 78.5433L508.888 79.7927ZM509.437 80.8C509.437 80.9733 509.317 81.3693 508.673 82.0129L510.088 83.4271C510.852 82.6627 511.437 81.7787 511.437 80.8H509.437ZM508.727 81.9634L491.063 97.2274L492.37 98.7406L510.034 83.4766L508.727 81.9634ZM490.969 98.6486L510.265 120.345L511.76 119.015L492.464 97.3194L490.969 98.6486ZM525.752 120.832L525.045 121.539L525.05 121.544L525.056 121.55L525.752 120.832ZM529.304 117.376L528.597 118.083L528.607 118.093L528.618 118.103L529.304 117.376ZM537.656 123.424L538.307 124.183L538.336 124.158L538.363 124.131L537.656 123.424ZM535.832 123C531.421 123 528.363 121.973 526.449 120.114L525.056 121.55C527.493 123.915 531.156 125 535.832 125V123ZM526.459 120.125C524.611 118.276 523.584 115.29 523.584 110.944H521.584C521.584 115.558 522.67 119.164 525.045 121.539L526.459 120.125ZM523.584 110.944V59.968H521.584V110.944H523.584ZM523.584 59.968C523.584 59.2901 523.753 58.9654 523.915 58.8031C524.078 58.6408 524.402 58.472 525.08 58.472V56.472C524.094 56.472 523.171 56.7192 522.501 57.3889C521.831 58.0586 521.584 58.9819 521.584 59.968H523.584ZM525.08 58.472C525.758 58.472 526.083 58.6408 526.245 58.8031C526.407 58.9654 526.576 59.2901 526.576 59.968H528.576C528.576 58.9819 528.329 58.0586 527.659 57.3889C526.99 56.7192 526.066 56.472 525.08 56.472V58.472ZM526.576 59.968V110.944H528.576V59.968H526.576ZM526.576 110.944C526.576 114.128 527.146 116.632 528.597 118.083L530.011 116.669C529.159 115.816 528.576 114.032 528.576 110.944H526.576ZM528.618 118.103C530.068 119.473 532.561 120.008 535.736 120.008V118.008C532.639 118.008 530.844 117.455 529.991 116.649L528.618 118.103ZM535.736 120.008C536.455 120.008 536.809 120.182 536.987 120.352C537.157 120.516 537.328 120.836 537.328 121.504H539.328C539.328 120.508 539.068 119.58 538.374 118.912C537.687 118.25 536.745 118.008 535.736 118.008V120.008ZM537.328 121.504C537.328 122.157 537.156 122.51 536.949 122.717L538.363 124.131C539.052 123.442 539.328 122.515 539.328 121.504H537.328ZM537.005 122.665C536.788 122.852 536.435 123 535.832 123V125C536.766 125 537.629 124.764 538.307 124.183L537.005 122.665ZM551.1 123.424L550.393 124.131L550.42 124.158L550.449 124.183L551.1 123.424ZM551.1 79.36L551.751 80.1193L551.78 80.0943L551.807 80.0671L551.1 79.36ZM549.372 69.088L548.665 69.7951L548.665 69.7951L549.372 69.088ZM549.372 61.984L548.665 61.2769L548.665 61.2769L549.372 61.984ZM552.924 123C552.321 123 551.969 122.852 551.751 122.665L550.449 124.183C551.127 124.764 551.991 125 552.924 125V123ZM551.807 122.717C551.6 122.51 551.428 122.157 551.428 121.504H549.428C549.428 122.515 549.704 123.442 550.393 124.131L551.807 122.717ZM551.428 121.504V81.184H549.428V121.504H551.428ZM551.428 81.184C551.428 80.5197 551.604 80.2451 551.751 80.1193L550.449 78.6007C549.7 79.2429 549.428 80.1843 549.428 81.184H551.428ZM551.807 80.0671C552.029 79.8452 552.361 79.688 552.924 79.688V77.688C551.951 77.688 551.067 77.9788 550.393 78.6529L551.807 80.0671ZM552.924 79.688C553.602 79.688 553.927 79.8568 554.089 80.0191C554.251 80.1814 554.42 80.5061 554.42 81.184H556.42C556.42 80.1979 556.173 79.2746 555.503 78.6049C554.833 77.9352 553.91 77.688 552.924 77.688V79.688ZM554.42 81.184V121.504H556.42V81.184H554.42ZM554.42 121.504C554.42 122.182 554.251 122.507 554.089 122.669C553.927 122.831 553.602 123 552.924 123V125C553.91 125 554.833 124.753 555.503 124.083C556.173 123.413 556.42 122.49 556.42 121.504H554.42ZM551.868 68.952C550.953 68.952 550.411 68.7131 550.079 68.3809L548.665 69.7951C549.485 70.6149 550.607 70.952 551.868 70.952V68.952ZM550.079 68.3809C549.747 68.0487 549.508 67.5067 549.508 66.592H547.508C547.508 67.8533 547.845 68.9753 548.665 69.7951L550.079 68.3809ZM549.508 66.592V64.48H547.508V66.592H549.508ZM549.508 64.48C549.508 63.5653 549.747 63.0233 550.079 62.6911L548.665 61.2769C547.845 62.0967 547.508 63.2187 547.508 64.48H549.508ZM550.079 62.6911C550.411 62.3589 550.953 62.12 551.868 62.12V60.12C550.607 60.12 549.485 60.4571 548.665 61.2769L550.079 62.6911ZM551.868 62.12H554.076V60.12H551.868V62.12ZM554.076 62.12C554.962 62.12 555.447 62.3522 555.724 62.646C556.012 62.9509 556.244 63.5 556.244 64.48H558.244C558.244 63.22 557.948 62.0891 557.18 61.274C556.401 60.4478 555.302 60.12 554.076 60.12V62.12ZM556.244 64.48V66.592H558.244V64.48H556.244ZM556.244 66.592C556.244 67.572 556.012 68.1211 555.724 68.426C555.447 68.7198 554.962 68.952 554.076 68.952V70.952C555.302 70.952 556.401 70.6242 557.18 69.798C557.948 68.9829 558.244 67.852 558.244 66.592H556.244ZM554.076 68.952H551.868V70.952H554.076V68.952ZM574.167 121.408L573.536 122.184L573.542 122.189L573.548 122.193L574.167 121.408ZM570.519 113.728L569.522 113.805L569.523 113.822L569.525 113.838L570.519 113.728ZM570.999 111.808L570.246 111.149L570.24 111.157L570.999 111.808ZM574.647 111.712L573.888 112.363L573.938 112.421L573.996 112.471L574.647 111.712ZM575.511 113.536L576.503 113.408L576.501 113.396L576.499 113.384L575.511 113.536ZM577.623 117.76L577.038 118.571L577.063 118.589L577.089 118.605L577.623 117.76ZM605.079 117.28L605.786 117.987L605.786 117.987L605.079 117.28ZM605.079 104.896L604.352 105.583L604.372 105.603L604.392 105.623L605.079 104.896ZM574.071 100.192L573.364 100.899L573.37 100.905L573.375 100.91L574.071 100.192ZM574.071 81.664L574.778 82.3711L574.778 82.3711L574.071 81.664ZM610.551 88.192L611.548 88.1153L611.546 88.094L611.544 88.0729L610.551 88.192ZM609.975 90.112L609.268 89.4049L609.241 89.432L609.216 89.4612L609.975 90.112ZM606.327 90.208L605.62 90.9151L605.647 90.9423L605.676 90.9673L606.327 90.208ZM605.463 88.384L604.473 88.5254L604.479 88.5675L604.489 88.6089L605.463 88.384ZM603.447 84.64L602.88 85.464L602.892 85.472L602.904 85.4796L603.447 84.64ZM577.623 85.216L578.33 85.9231L578.33 85.9231L577.623 85.216ZM577.623 96.64L576.916 97.3471L576.927 97.3578L576.938 97.3682L577.623 96.64ZM608.631 101.344L607.913 102.04L607.918 102.046L607.924 102.051L608.631 101.344ZM608.631 120.832L609.338 121.539L609.338 121.539L608.631 120.832ZM583.191 122.904C579.413 122.904 576.657 122.097 574.786 120.623L573.548 122.193C575.901 124.047 579.161 124.904 583.191 124.904V122.904ZM574.798 120.632C573.012 119.181 571.877 116.898 571.513 113.618L569.525 113.838C569.929 117.47 571.226 120.307 573.536 122.184L574.798 120.632ZM571.516 113.651C571.464 112.973 571.608 112.634 571.758 112.459L570.24 111.157C569.622 111.878 569.446 112.819 569.522 113.805L571.516 113.651ZM571.752 112.467C571.968 112.219 572.305 112.04 572.919 112.04V110.04C571.869 110.04 570.926 110.373 570.246 111.149L571.752 112.467ZM572.919 112.04C573.489 112.04 573.747 112.199 573.888 112.363L575.406 111.061C574.779 110.329 573.885 110.04 572.919 110.04V112.04ZM573.996 112.471C574.199 112.645 574.416 112.993 574.523 113.688L576.499 113.384C576.35 112.415 575.991 111.547 575.298 110.953L573.996 112.471ZM574.519 113.664C574.796 115.808 575.583 117.52 577.038 118.571L578.208 116.949C577.359 116.336 576.738 115.232 576.503 113.408L574.519 113.664ZM577.089 118.605C578.544 119.524 580.628 119.912 583.191 119.912V117.912C580.762 117.912 579.134 117.532 578.157 116.915L577.089 118.605ZM583.191 119.912H598.935V117.912H583.191V119.912ZM598.935 119.912C601.986 119.912 604.397 119.376 605.786 117.987L604.372 116.573C603.585 117.36 601.9 117.912 598.935 117.912V119.912ZM605.786 117.987C607.232 116.541 607.807 114.111 607.807 111.04H605.807C605.807 113.985 605.23 115.715 604.372 116.573L605.786 117.987ZM607.807 111.04C607.807 107.979 607.236 105.558 605.766 104.169L604.392 105.623C605.226 106.41 605.807 108.085 605.807 111.04H607.807ZM605.806 104.209C604.417 102.739 601.996 102.168 598.935 102.168V104.168C601.89 104.168 603.565 104.749 604.352 105.583L605.806 104.209ZM598.935 102.168H583.479V104.168H598.935V102.168ZM583.479 102.168C579.391 102.168 576.555 101.206 574.767 99.4738L573.375 100.91C575.683 103.146 579.119 104.168 583.479 104.168V102.168ZM574.778 99.4849C573.056 97.7624 572.095 94.9979 572.095 90.976H570.095C570.095 95.2741 571.118 98.6536 573.364 100.899L574.778 99.4849ZM572.095 90.976C572.095 86.8849 573.058 84.0911 574.778 82.3711L573.364 80.9569C571.116 83.2049 570.095 86.6191 570.095 90.976H572.095ZM574.778 82.3711C576.567 80.5819 579.399 79.592 583.479 79.592V77.592C579.111 77.592 575.671 78.6501 573.364 80.9569L574.778 82.3711ZM583.479 79.592H598.455V77.592H583.479V79.592ZM598.455 79.592C601.969 79.592 604.551 80.3638 606.329 81.7753C608.09 83.1725 609.197 85.3032 609.558 88.3111L611.544 88.0729C611.137 84.6808 609.844 82.0115 607.573 80.2087C605.319 78.4202 602.237 77.592 598.455 77.592V79.592ZM609.554 88.2687C609.603 88.9078 609.449 89.224 609.268 89.4049L610.682 90.8191C611.397 90.104 611.627 89.1402 611.548 88.1153L609.554 88.2687ZM609.216 89.4612C609.09 89.608 608.815 89.784 608.151 89.784V91.784C609.151 91.784 610.092 91.512 610.734 90.7628L609.216 89.4612ZM608.151 89.784C607.548 89.784 607.196 89.6355 606.978 89.4487L605.676 90.9673C606.354 91.5485 607.218 91.784 608.151 91.784V89.784ZM607.034 89.5009C606.838 89.3049 606.609 88.9042 606.437 88.1591L604.489 88.6089C604.701 89.5278 605.048 90.3431 605.62 90.9151L607.034 89.5009ZM606.453 88.2426C606.173 86.2823 605.406 84.7165 603.99 83.8004L602.904 85.4796C603.664 85.9715 604.241 86.9017 604.473 88.5254L606.453 88.2426ZM604.014 83.816C602.732 82.9351 600.813 82.584 598.455 82.584V84.584C600.705 84.584 602.114 84.9369 602.88 85.464L604.014 83.816ZM598.455 82.584H583.479V84.584H598.455V82.584ZM583.479 82.584C580.597 82.584 578.297 83.1283 576.916 84.5089L578.33 85.9231C579.125 85.1277 580.729 84.584 583.479 84.584V82.584ZM576.916 84.5089C575.591 85.8334 575.087 88.1152 575.087 90.976H577.087C577.087 88.2048 577.607 86.6466 578.33 85.9231L576.916 84.5089ZM575.087 90.976C575.087 93.7807 575.594 96.0255 576.916 97.3471L578.33 95.9329C577.604 95.2065 577.087 93.6753 577.087 90.976H575.087ZM576.938 97.3682C578.318 98.6673 580.608 99.176 583.479 99.176V97.176C580.718 97.176 579.104 96.6607 578.308 95.9118L576.938 97.3682ZM583.479 99.176H598.935V97.176H583.479V99.176ZM598.935 99.176C603.215 99.176 606.13 100.201 607.913 102.04L609.349 100.648C607.036 98.2626 603.487 97.176 598.935 97.176V99.176ZM607.924 102.051C609.777 103.904 610.799 106.832 610.799 111.04H612.799C612.799 106.544 611.709 103.008 609.338 100.637L607.924 102.051ZM610.799 111.04C610.799 115.317 609.775 118.274 607.924 120.125L609.338 121.539C611.711 119.166 612.799 115.595 612.799 111.04H610.799ZM607.924 120.125C606.142 121.907 603.222 122.904 598.935 122.904V124.904C603.48 124.904 607.024 123.853 609.338 121.539L607.924 120.125ZM598.935 122.904H583.191V124.904H598.935V122.904ZM632.402 119.968L631.695 120.675L631.704 120.683L632.402 119.968ZM628.37 83.68H629.37V82.68H628.37V83.68ZM628.37 78.688V79.688H629.37V78.688H628.37ZM633.362 78.688H632.362V79.688H633.362V78.688ZM633.362 83.68V82.68H632.362V83.68H633.362ZM635.954 116.416L635.247 117.123L635.254 117.13L635.26 117.136L635.954 116.416ZM645.362 120.008C646.081 120.008 646.435 120.182 646.613 120.352C646.783 120.516 646.954 120.836 646.954 121.504H648.954C648.954 120.508 648.694 119.58 648 118.912C647.313 118.25 646.371 118.008 645.362 118.008V120.008ZM646.954 121.504C646.954 122.172 646.783 122.492 646.613 122.656C646.435 122.826 646.081 123 645.362 123V125C646.371 125 647.313 124.758 648 124.096C648.694 123.428 648.954 122.5 648.954 121.504H646.954ZM645.362 123C639.6 123 635.588 121.682 633.101 119.253L631.704 120.683C634.721 123.63 639.348 125 645.362 125V123ZM633.109 119.261C630.69 116.841 629.37 112.869 629.37 107.104H627.37C627.37 113.115 628.739 117.719 631.695 120.675L633.109 119.261ZM629.37 107.104V83.68H627.37V107.104H629.37ZM628.37 82.68H622.61V84.68H628.37V82.68ZM622.61 82.68C621.932 82.68 621.608 82.5112 621.445 82.3489C621.283 82.1866 621.114 81.8619 621.114 81.184H619.114C619.114 82.1701 619.361 83.0934 620.031 83.7631C620.701 84.4328 621.624 84.68 622.61 84.68V82.68ZM621.114 81.184C621.114 80.5061 621.283 80.1814 621.445 80.0191C621.608 79.8568 621.932 79.688 622.61 79.688V77.688C621.624 77.688 620.701 77.9352 620.031 78.6049C619.361 79.2746 619.114 80.1979 619.114 81.184H621.114ZM622.61 79.688H628.37V77.688H622.61V79.688ZM629.37 78.688V68.32H627.37V78.688H629.37ZM629.37 68.32C629.37 67.6421 629.539 67.3174 629.701 67.1551C629.864 66.9928 630.188 66.824 630.866 66.824V64.824C629.88 64.824 628.957 65.0712 628.287 65.7409C627.617 66.4106 627.37 67.3339 627.37 68.32H629.37ZM630.866 66.824C631.544 66.824 631.869 66.9928 632.031 67.1551C632.193 67.3174 632.362 67.6421 632.362 68.32H634.362C634.362 67.3339 634.115 66.4106 633.445 65.7409C632.776 65.0712 631.852 64.824 630.866 64.824V66.824ZM632.362 68.32V78.688H634.362V68.32H632.362ZM633.362 79.688H645.458V77.688H633.362V79.688ZM645.458 79.688C646.136 79.688 646.461 79.8568 646.623 80.0191C646.785 80.1814 646.954 80.5061 646.954 81.184H648.954C648.954 80.1979 648.707 79.2746 648.037 78.6049C647.368 77.9352 646.444 77.688 645.458 77.688V79.688ZM646.954 81.184C646.954 81.8619 646.785 82.1866 646.623 82.3489C646.461 82.5112 646.136 82.68 645.458 82.68V84.68C646.444 84.68 647.368 84.4328 648.037 83.7631C648.707 83.0934 648.954 82.1701 648.954 81.184H646.954ZM645.458 82.68H633.362V84.68H645.458V82.68ZM632.362 83.68V107.104H634.362V83.68H632.362ZM632.362 107.104C632.362 111.649 633.226 115.102 635.247 117.123L636.661 115.709C635.226 114.274 634.362 111.519 634.362 107.104H632.362ZM635.26 117.136C637.34 119.142 640.811 120.008 645.362 120.008V118.008C640.953 118.008 638.152 117.146 636.648 115.696L635.26 117.136ZM659.899 123.328L659.146 123.987L659.19 124.037L659.24 124.081L659.899 123.328ZM659.899 117.376L659.192 116.669L659.192 116.669L659.899 117.376ZM662.011 123C661.279 123 660.836 122.819 660.557 122.575L659.24 124.081C659.986 124.733 660.951 125 662.011 125V123ZM660.651 122.669C660.408 122.391 660.227 121.948 660.227 121.216H658.227C658.227 122.276 658.494 123.241 659.146 123.987L660.651 122.669ZM660.227 121.216V119.392H658.227V121.216H660.227ZM660.227 119.392C660.227 118.65 660.412 118.277 660.606 118.083L659.192 116.669C658.49 117.371 658.227 118.342 658.227 119.392H660.227ZM660.606 118.083C660.888 117.801 661.313 117.608 662.011 117.608V115.608C660.916 115.608 659.934 115.927 659.192 116.669L660.606 118.083ZM662.011 117.608H663.835V115.608H662.011V117.608ZM663.835 117.608C664.568 117.608 664.936 117.796 665.131 117.999C665.333 118.208 665.523 118.61 665.523 119.392H667.523C667.523 118.318 667.264 117.328 666.57 116.609C665.87 115.884 664.894 115.608 663.835 115.608V117.608ZM665.523 119.392V121.216H667.523V119.392H665.523ZM665.523 121.216C665.523 121.998 665.333 122.4 665.131 122.609C664.936 122.812 664.568 123 663.835 123V125C664.894 125 665.87 124.724 666.57 123.999C667.264 123.28 667.523 122.29 667.523 121.216H665.523ZM663.835 123H662.011V125H663.835V123ZM753.564 62.944L752.857 63.6511L752.884 63.6783L752.913 63.7033L753.564 62.944ZM754.044 65.536L754.995 65.8459L755.006 65.8126L755.014 65.7785L754.044 65.536ZM735.612 122.08L734.661 121.77L734.658 121.781L734.654 121.793L735.612 122.08ZM730.236 122.08L731.194 121.793L731.191 121.784L730.236 122.08ZM714.492 71.296L715.447 70.9999L714.495 67.9283L713.537 70.9982L714.492 71.296ZM698.652 122.08L699.58 122.451L699.595 122.415L699.607 122.378L698.652 122.08ZM697.692 123.52L697.052 122.752L697.017 122.781L696.985 122.813L697.692 123.52ZM693.372 122.08L694.33 121.793L694.326 121.781L694.323 121.77L693.372 122.08ZM674.94 65.536L675.891 65.2261L675.889 65.2198L674.94 65.536ZM675.324 63.04L674.565 62.3892L674.565 62.3892L675.324 63.04ZM676.956 62.272V61.272H676.911L676.865 61.2761L676.956 62.272ZM679.644 64L678.668 64.2169L678.679 64.265L678.694 64.3119L679.644 64ZM696.156 114.304L695.206 114.616L696.187 117.604L697.112 114.598L696.156 114.304ZM711.612 64.096L712.568 64.3902L712.57 64.3833L711.612 64.096ZM717.372 64.096L716.414 64.3834L716.416 64.3909L717.372 64.096ZM732.924 114.496L731.968 114.791L732.899 117.807L733.875 114.805L732.924 114.496ZM749.34 64L748.391 63.6838L748.389 63.6908L749.34 64ZM751.548 63.272C752.29 63.272 752.663 63.4568 752.857 63.6511L754.271 62.2369C753.569 61.5352 752.598 61.272 751.548 61.272V63.272ZM752.913 63.7033C753.119 63.8798 753.236 64.104 753.236 64.48H755.236C755.236 63.576 754.905 62.7762 754.215 62.1847L752.913 63.7033ZM753.236 64.48C753.236 64.4764 753.236 64.4931 753.231 64.5372C753.226 64.5792 753.217 64.6359 753.204 64.7091C753.177 64.8563 753.135 65.0497 753.074 65.2935L755.014 65.7785C755.139 65.2793 755.236 64.8128 755.236 64.48H753.236ZM753.093 65.2261L734.661 121.77L736.563 122.39L754.995 65.8459L753.093 65.2261ZM734.654 121.793C734.503 122.297 734.299 122.58 734.099 122.739C733.908 122.892 733.637 123 733.212 123V125C734.003 125 734.74 124.788 735.349 124.301C735.949 123.82 736.337 123.143 736.57 122.367L734.654 121.793ZM733.212 123H732.732V125H733.212V123ZM732.732 123C732.263 123 731.963 122.885 731.758 122.727C731.548 122.566 731.342 122.287 731.194 121.793L729.278 122.367C729.514 123.153 729.916 123.834 730.538 124.313C731.165 124.795 731.921 125 732.732 125V123ZM731.191 121.784L715.447 70.9999L713.537 71.5921L729.281 122.376L731.191 121.784ZM713.537 70.9982L697.697 121.782L699.607 122.378L715.447 71.5938L713.537 70.9982ZM697.724 121.709C697.507 122.25 697.269 122.571 697.052 122.752L698.332 124.288C698.883 123.829 699.285 123.19 699.58 122.451L697.724 121.709ZM696.985 122.813C696.934 122.864 696.738 123 696.156 123V125C696.982 125 697.81 124.816 698.399 124.227L696.985 122.813ZM696.156 123H695.676V125H696.156V123ZM695.676 123C695.296 123 695.054 122.9 694.876 122.752C694.686 122.593 694.484 122.307 694.33 121.793L692.414 122.367C692.644 123.133 693.018 123.807 693.596 124.288C694.186 124.78 694.904 125 695.676 125V123ZM694.323 121.77L675.891 65.2261L673.989 65.8459L692.421 122.39L694.323 121.77ZM675.889 65.2198C675.777 64.8857 675.748 64.6807 675.748 64.576H673.748C673.748 64.9833 673.847 65.4183 673.991 65.8522L675.889 65.2198ZM675.748 64.576C675.748 64.245 675.85 63.9624 676.083 63.6908L674.565 62.3892C674.03 63.0136 673.748 63.755 673.748 64.576H675.748ZM676.083 63.6908C676.265 63.4787 676.547 63.3133 677.047 63.2679L676.865 61.2761C675.957 61.3587 675.151 61.7053 674.565 62.3892L676.083 63.6908ZM676.956 63.272H677.436V61.272H676.956V63.272ZM677.436 63.272C677.888 63.272 678.138 63.3778 678.284 63.4915C678.426 63.6026 678.577 63.8063 678.668 64.2169L680.62 63.7831C680.455 63.0417 680.11 62.3814 679.516 61.9165C678.926 61.4542 678.2 61.272 677.436 61.272V63.272ZM678.694 64.3119L695.206 114.616L697.106 113.992L680.594 63.6881L678.694 64.3119ZM697.112 114.598L712.568 64.3902L710.656 63.8018L695.2 114.01L697.112 114.598ZM712.57 64.3833C712.715 63.899 712.923 63.6227 713.143 63.4596C713.364 63.2961 713.692 63.176 714.204 63.176V61.176C713.372 61.176 712.596 61.3759 711.953 61.8524C711.309 62.3293 710.893 63.013 710.654 63.8087L712.57 64.3833ZM714.204 63.176H714.876V61.176H714.204V63.176ZM714.876 63.176C715.345 63.176 715.645 63.2905 715.85 63.4486C716.06 63.6098 716.266 63.889 716.414 64.3833L718.33 63.8087C718.094 63.023 717.692 62.3422 717.07 61.8634C716.443 61.3815 715.687 61.176 714.876 61.176V63.176ZM716.416 64.3909L731.968 114.791L733.88 114.201L718.328 63.8011L716.416 64.3909ZM733.875 114.805L750.291 64.3092L748.389 63.6908L731.973 114.187L733.875 114.805ZM750.289 64.3162C750.437 63.8714 750.623 63.627 750.796 63.4915C750.96 63.3631 751.189 63.272 751.548 63.272V61.272C750.819 61.272 750.136 61.4689 749.564 61.9165C749.001 62.357 748.627 62.9766 748.391 63.6838L750.289 64.3162ZM760.683 119.872L759.976 120.579L759.976 120.579L760.683 119.872ZM760.683 82.72L761.39 83.4271L761.39 83.4271L760.683 82.72ZM773.835 78.688L773.824 79.688H773.835V78.688ZM794.859 82.816L795.566 82.1089L795.566 82.1089L794.859 82.816ZM794.859 119.872L795.566 120.579L795.566 120.579L794.859 119.872ZM791.211 116.32L790.504 115.613L790.504 115.613L791.211 116.32ZM791.211 86.464L790.492 87.1586L790.504 87.1712L790.516 87.1834L791.211 86.464ZM773.835 83.68L773.821 84.68H773.835V83.68ZM764.235 86.368L764.942 87.0751L764.942 87.0751L764.235 86.368ZM764.235 116.32L763.528 117.027L763.534 117.033L763.54 117.039L764.235 116.32ZM773.835 123C767.943 123 763.874 121.649 761.39 119.165L759.976 120.579C762.996 123.599 767.695 125 773.835 125V123ZM761.39 119.165C758.905 116.679 757.555 112.64 757.555 106.816H755.555C755.555 112.896 756.957 117.561 759.976 120.579L761.39 119.165ZM757.555 106.816V95.968H755.555V106.816H757.555ZM757.555 95.968C757.555 90.0083 758.908 85.9093 761.39 83.4271L759.976 82.0129C756.954 85.0347 755.555 89.7677 755.555 95.968H757.555ZM761.39 83.4271C763.87 80.9473 767.934 79.6253 773.824 79.6879L773.846 77.6881C767.705 77.6227 763 78.9887 759.976 82.0129L761.39 83.4271ZM773.835 79.688H781.707V77.688H773.835V79.688ZM781.707 79.688C787.599 79.688 791.668 81.0392 794.152 83.5231L795.566 82.1089C792.546 79.0887 787.847 77.688 781.707 77.688V79.688ZM794.152 83.5231C796.636 86.007 797.987 90.0759 797.987 95.968H799.987C799.987 89.8281 798.586 85.129 795.566 82.1089L794.152 83.5231ZM797.987 95.968V106.72H799.987V95.968H797.987ZM797.987 106.72C797.987 112.612 796.636 116.681 794.152 119.165L795.566 120.579C798.586 117.559 799.987 112.86 799.987 106.72H797.987ZM794.152 119.165C791.668 121.649 787.599 123 781.707 123V125C787.847 125 792.546 123.599 795.566 120.579L794.152 119.165ZM781.707 123H773.835V125H781.707V123ZM781.707 120.008C786.324 120.008 789.836 119.109 791.918 117.027L790.504 115.613C789.002 117.115 786.178 118.008 781.707 118.008V120.008ZM791.918 117.027C794.059 114.886 794.995 111.349 794.995 106.72H792.995C792.995 111.179 792.075 114.042 790.504 115.613L791.918 117.027ZM794.995 106.72V95.968H792.995V106.72H794.995ZM794.995 95.968C794.995 91.3442 794.061 87.8259 791.906 85.7446L790.516 87.1834C792.073 88.6861 792.995 91.5038 792.995 95.968H794.995ZM791.93 85.7694C789.849 83.6137 786.331 82.68 781.707 82.68V84.68C786.171 84.68 788.989 85.6023 790.492 87.1586L791.93 85.7694ZM781.707 82.68H773.835V84.68H781.707V82.68ZM773.849 82.6801C769.219 82.6149 765.675 83.5142 763.528 85.6609L764.942 87.0751C766.507 85.5098 769.363 84.6171 773.821 84.6799L773.849 82.6801ZM763.528 85.6609C761.444 87.7447 760.547 91.292 760.547 95.968H762.547C762.547 91.428 763.442 88.5753 764.942 87.0751L763.528 85.6609ZM760.547 95.968V106.816H762.547V95.968H760.547ZM760.547 106.816C760.547 111.433 761.446 114.945 763.528 117.027L764.942 115.613C763.44 114.111 762.547 111.287 762.547 106.816H760.547ZM763.54 117.039C765.682 119.107 769.213 120.008 773.835 120.008V118.008C769.369 118.008 766.5 117.117 764.93 115.601L763.54 117.039ZM773.835 120.008H781.707V118.008H773.835V120.008ZM825.729 87.616L826.371 88.3829L826.371 88.3829L825.729 87.616ZM820.641 98.848L819.642 98.7954L819.641 98.8217V98.848H820.641ZM820.545 99.52L819.651 99.0728L819.545 99.2839V99.52H820.545ZM820.545 88.864H819.545L821.436 89.3182L820.545 88.864ZM827.745 81.376L828.228 82.2519L828.234 82.2485L827.745 81.376ZM839.073 79.688C839.751 79.688 840.076 79.8568 840.238 80.0191C840.4 80.1814 840.569 80.5061 840.569 81.184H842.569C842.569 80.1979 842.322 79.2746 841.652 78.6049C840.982 77.9352 840.059 77.688 839.073 77.688V79.688ZM840.569 81.184C840.569 81.8619 840.4 82.1866 840.238 82.3489C840.076 82.5112 839.751 82.68 839.073 82.68V84.68C840.059 84.68 840.982 84.4328 841.652 83.7631C842.322 83.0934 842.569 82.1701 842.569 81.184H840.569ZM839.073 82.68C833.173 82.68 828.464 84.0233 825.087 86.8491L826.371 88.3829C829.266 85.9607 833.453 84.68 839.073 84.68V82.68ZM825.087 86.8491C821.698 89.6852 819.91 93.7116 819.642 98.7954L821.64 98.9006C821.884 94.2564 823.488 90.7948 826.371 88.3829L825.087 86.8491ZM819.641 98.848C819.641 98.9784 819.634 99.0642 819.627 99.1146C819.624 99.1388 819.621 99.147 819.622 99.1429C819.623 99.1397 819.63 99.1131 819.651 99.0728L821.439 99.9672C821.617 99.6113 821.641 99.1768 821.641 98.848H819.641ZM819.545 99.52V121.504H821.545V99.52H819.545ZM819.545 121.504C819.545 122.182 819.376 122.507 819.214 122.669C819.052 122.831 818.727 123 818.049 123V125C819.035 125 819.958 124.753 820.628 124.083C821.298 123.413 821.545 122.49 821.545 121.504H819.545ZM818.049 123C817.371 123 817.046 122.831 816.884 122.669C816.722 122.507 816.553 122.182 816.553 121.504H814.553C814.553 122.49 814.8 123.413 815.47 124.083C816.14 124.753 817.063 125 818.049 125V123ZM816.553 121.504V81.184H814.553V121.504H816.553ZM816.553 81.184C816.553 80.5061 816.722 80.1814 816.884 80.0191C817.046 79.8568 817.371 79.688 818.049 79.688V77.688C817.063 77.688 816.14 77.9352 815.47 78.6049C814.8 79.2746 814.553 80.1979 814.553 81.184H816.553ZM818.049 79.688C818.727 79.688 819.052 79.8568 819.214 80.0191C819.376 80.1814 819.545 80.5061 819.545 81.184H821.545C821.545 80.1979 821.298 79.2746 820.628 78.6049C819.958 77.9352 819.035 77.688 818.049 77.688V79.688ZM819.545 81.184V88.864H821.545V81.184H819.545ZM821.436 89.3182C823.011 86.228 825.271 83.8809 828.228 82.2518L827.262 80.5002C823.947 82.3271 821.407 84.972 819.654 88.4098L821.436 89.3182ZM828.234 82.2485C831.259 80.5544 834.86 79.688 839.073 79.688V77.688C834.582 77.688 830.631 78.6135 827.256 80.5035L828.234 82.2485ZM885.919 119.68L886.7 119.055L886.683 119.035L886.666 119.015L885.919 119.68ZM885.631 123.232L886.255 124.013L886.264 124.006L885.631 123.232ZM882.175 123.04L881.426 123.703L881.446 123.726L881.468 123.747L882.175 123.04ZM862.783 101.152L863.531 100.489L862.872 99.745L862.124 100.399L862.783 101.152ZM856.639 106.528L855.98 105.775L855.639 106.074V106.528H856.639ZM856.639 99.808H855.639V101.984L857.29 100.567L856.639 99.808ZM881.023 78.88L880.398 78.0991L880.385 78.1099L880.371 78.1212L881.023 78.88ZM884.575 79.168L885.356 78.5433L885.349 78.5348L884.575 79.168ZM884.287 82.72L884.941 83.4766L884.968 83.4528L884.994 83.4271L884.287 82.72ZM866.623 97.984L865.969 97.2274L865.201 97.8906L865.876 98.6486L866.623 97.984ZM885.138 120.305C885.588 120.867 885.687 121.224 885.687 121.408H887.687C887.687 120.568 887.274 119.773 886.7 119.055L885.138 120.305ZM885.687 121.408C885.687 121.637 885.571 121.989 884.998 122.458L886.264 124.006C887.098 123.323 887.687 122.459 887.687 121.408H885.687ZM885.006 122.451C884.414 122.925 884.096 123 883.999 123V125C884.797 125 885.567 124.563 886.255 124.013L885.006 122.451ZM883.999 123C883.806 123 883.438 122.889 882.882 122.333L881.468 123.747C882.191 124.471 883.04 125 883.999 125V123ZM882.923 122.377L863.531 100.489L862.034 101.815L881.426 123.703L882.923 122.377ZM862.124 100.399L855.98 105.775L857.297 107.281L863.441 101.905L862.124 100.399ZM855.639 106.528V121.504H857.639V106.528H855.639ZM855.639 121.504C855.639 122.182 855.47 122.507 855.308 122.669C855.145 122.831 854.821 123 854.143 123V125C855.129 125 856.052 124.753 856.722 124.083C857.392 123.413 857.639 122.49 857.639 121.504H855.639ZM854.143 123C853.465 123 853.14 122.831 852.978 122.669C852.816 122.507 852.647 122.182 852.647 121.504H850.647C850.647 122.49 850.894 123.413 851.564 124.083C852.233 124.753 853.157 125 854.143 125V123ZM852.647 121.504V59.968H850.647V121.504H852.647ZM852.647 59.968C852.647 59.2901 852.816 58.9654 852.978 58.8031C853.14 58.6408 853.465 58.472 854.143 58.472V56.472C853.157 56.472 852.233 56.7192 851.564 57.3889C850.894 58.0586 850.647 58.9819 850.647 59.968H852.647ZM854.143 58.472C854.821 58.472 855.145 58.6408 855.308 58.8031C855.47 58.9654 855.639 59.2901 855.639 59.968H857.639C857.639 58.9819 857.392 58.0586 856.722 57.3889C856.052 56.7192 855.129 56.472 854.143 56.472V58.472ZM855.639 59.968V99.808H857.639V59.968H855.639ZM857.29 100.567L881.674 79.6388L880.371 78.1212L855.987 99.0492L857.29 100.567ZM881.647 79.6609C882.21 79.2112 882.567 79.112 882.751 79.112V77.112C881.911 77.112 881.116 77.5248 880.398 78.0991L881.647 79.6609ZM882.751 79.112C882.98 79.112 883.331 79.2274 883.801 79.8012L885.349 78.5348C884.666 77.7006 883.801 77.112 882.751 77.112V79.112ZM883.794 79.7927C884.268 80.3847 884.343 80.7025 884.343 80.8H886.343C886.343 80.0015 885.906 79.2313 885.356 78.5433L883.794 79.7927ZM884.343 80.8C884.343 80.9733 884.223 81.3693 883.58 82.0129L884.994 83.4271C885.758 82.6627 886.343 81.7787 886.343 80.8H884.343ZM883.633 81.9634L865.969 97.2274L867.277 98.7406L884.941 83.4766L883.633 81.9634ZM865.876 98.6486L885.172 120.345L886.666 119.015L867.37 97.3194L865.876 98.6486ZM898.355 121.408L897.724 122.184L897.73 122.189L897.736 122.193L898.355 121.408ZM894.707 113.728L893.709 113.805L893.711 113.822L893.713 113.838L894.707 113.728ZM895.187 111.808L894.434 111.149L894.427 111.157L895.187 111.808ZM898.835 111.712L898.075 112.363L898.125 112.421L898.184 112.471L898.835 111.712ZM899.699 113.536L900.69 113.408L900.689 113.396L900.687 113.384L899.699 113.536ZM901.811 117.76L901.225 118.571L901.25 118.589L901.277 118.605L901.811 117.76ZM929.267 117.28L929.974 117.987L929.974 117.987L929.267 117.28ZM929.267 104.896L928.539 105.583L928.559 105.603L928.58 105.623L929.267 104.896ZM898.259 100.192L897.551 100.899L897.557 100.905L897.563 100.91L898.259 100.192ZM898.259 81.664L898.966 82.3711L898.966 82.3711L898.259 81.664ZM934.739 88.192L935.736 88.1153L935.734 88.094L935.731 88.0729L934.739 88.192ZM934.163 90.112L933.455 89.4049L933.428 89.432L933.403 89.4612L934.163 90.112ZM930.515 90.208L929.807 90.9151L929.835 90.9423L929.864 90.9673L930.515 90.208ZM929.651 88.384L928.661 88.5254L928.667 88.5675L928.676 88.6089L929.651 88.384ZM927.635 84.64L927.068 85.464L927.08 85.472L927.091 85.4796L927.635 84.64ZM901.811 85.216L902.518 85.9231L902.518 85.9231L901.811 85.216ZM901.811 96.64L901.103 97.3471L901.114 97.3578L901.125 97.3682L901.811 96.64ZM932.819 101.344L932.101 102.04L932.106 102.046L932.111 102.051L932.819 101.344ZM932.819 120.832L933.526 121.539L933.526 121.539L932.819 120.832ZM907.379 122.904C903.601 122.904 900.845 122.097 898.973 120.623L897.736 122.193C900.088 124.047 903.348 124.904 907.379 124.904V122.904ZM898.985 120.632C897.199 119.181 896.065 116.898 895.7 113.618L893.713 113.838C894.116 117.47 895.414 120.307 897.724 122.184L898.985 120.632ZM895.704 113.651C895.651 112.973 895.795 112.634 895.946 112.459L894.427 111.157C893.81 111.878 893.634 112.819 893.709 113.805L895.704 113.651ZM895.939 112.467C896.156 112.219 896.493 112.04 897.107 112.04V110.04C896.056 110.04 895.113 110.373 894.434 111.149L895.939 112.467ZM897.107 112.04C897.677 112.04 897.935 112.199 898.075 112.363L899.594 111.061C898.966 110.329 898.072 110.04 897.107 110.04V112.04ZM898.184 112.471C898.386 112.645 898.603 112.993 898.71 113.688L900.687 113.384C900.538 112.415 900.179 111.547 899.485 110.953L898.184 112.471ZM898.707 113.664C898.983 115.808 899.77 117.52 901.225 118.571L902.396 116.949C901.547 116.336 900.926 115.232 900.69 113.408L898.707 113.664ZM901.277 118.605C902.731 119.524 904.816 119.912 907.379 119.912V117.912C904.949 117.912 903.322 117.532 902.344 116.915L901.277 118.605ZM907.379 119.912H923.123V117.912H907.379V119.912ZM923.123 119.912C926.173 119.912 928.584 119.376 929.974 117.987L928.559 116.573C927.773 117.36 926.088 117.912 923.123 117.912V119.912ZM929.974 117.987C931.419 116.541 931.995 114.111 931.995 111.04H929.995C929.995 113.985 929.418 115.715 928.559 116.573L929.974 117.987ZM931.995 111.04C931.995 107.979 931.423 105.558 929.953 104.169L928.58 105.623C929.414 106.41 929.995 108.085 929.995 111.04H931.995ZM929.994 104.209C928.605 102.739 926.184 102.168 923.123 102.168V104.168C926.077 104.168 927.752 104.749 928.539 105.583L929.994 104.209ZM923.123 102.168H907.667V104.168H923.123V102.168ZM907.667 102.168C903.579 102.168 900.743 101.206 898.954 99.4738L897.563 100.91C899.87 103.146 903.306 104.168 907.667 104.168V102.168ZM898.966 99.4849C897.243 97.7624 896.283 94.9979 896.283 90.976H894.283C894.283 95.2741 895.306 98.6536 897.551 100.899L898.966 99.4849ZM896.283 90.976C896.283 86.8849 897.246 84.0911 898.966 82.3711L897.551 80.9569C895.303 83.2049 894.283 86.6191 894.283 90.976H896.283ZM898.966 82.3711C900.755 80.5819 903.586 79.592 907.667 79.592V77.592C903.299 77.592 899.858 78.6501 897.551 80.9569L898.966 82.3711ZM907.667 79.592H922.643V77.592H907.667V79.592ZM922.643 79.592C926.157 79.592 928.738 80.3638 930.517 81.7753C932.277 83.1725 933.385 85.3032 933.746 88.3111L935.731 88.0729C935.324 84.6808 934.032 82.0115 931.76 80.2087C929.507 78.4202 926.424 77.592 922.643 77.592V79.592ZM933.741 88.2687C933.791 88.9078 933.636 89.224 933.455 89.4049L934.87 90.8191C935.585 90.104 935.814 89.1402 935.736 88.1153L933.741 88.2687ZM933.403 89.4612C933.277 89.608 933.003 89.784 932.339 89.784V91.784C933.338 91.784 934.28 91.512 934.922 90.7628L933.403 89.4612ZM932.339 89.784C931.736 89.784 931.383 89.6355 931.165 89.4487L929.864 90.9673C930.542 91.5485 931.405 91.784 932.339 91.784V89.784ZM931.222 89.5009C931.026 89.3049 930.797 88.9042 930.625 88.1591L928.676 88.6089C928.888 89.5278 929.235 90.3431 929.807 90.9151L931.222 89.5009ZM930.64 88.2426C930.36 86.2823 929.593 84.7165 928.178 83.8004L927.091 85.4796C927.852 85.9715 928.429 86.9017 928.661 88.5254L930.64 88.2426ZM928.201 83.816C926.92 82.9351 925 82.584 922.643 82.584V84.584C924.893 84.584 926.301 84.9369 927.068 85.464L928.201 83.816ZM922.643 82.584H907.667V84.584H922.643V82.584ZM907.667 82.584C904.785 82.584 902.484 83.1283 901.103 84.5089L902.518 85.9231C903.313 85.1277 904.916 84.584 907.667 84.584V82.584ZM901.103 84.5089C899.779 85.8334 899.275 88.1152 899.275 90.976H901.275C901.275 88.2048 901.794 86.6466 902.518 85.9231L901.103 84.5089ZM899.275 90.976C899.275 93.7807 899.782 96.0255 901.103 97.3471L902.518 95.9329C901.791 95.2065 901.275 93.6753 901.275 90.976H899.275ZM901.125 97.3682C902.505 98.6673 904.795 99.176 907.667 99.176V97.176C904.906 97.176 903.292 96.6607 902.496 95.9118L901.125 97.3682ZM907.667 99.176H923.123V97.176H907.667V99.176ZM923.123 99.176C927.403 99.176 930.318 100.201 932.101 102.04L933.536 100.648C931.223 98.2626 927.674 97.176 923.123 97.176V99.176ZM932.111 102.051C933.965 103.904 934.987 106.832 934.987 111.04H936.987C936.987 106.544 935.896 103.008 933.526 100.637L932.111 102.051ZM934.987 111.04C934.987 115.317 933.962 118.274 932.111 120.125L933.526 121.539C935.899 119.166 936.987 115.595 936.987 111.04H934.987ZM932.111 120.125C930.329 121.907 927.41 122.904 923.123 122.904V124.904C927.667 124.904 931.212 123.853 933.526 121.539L932.111 120.125ZM923.123 122.904H907.379V124.904H923.123V122.904Z" fill="black"/>
<line x1="197" y1="2.18557e-07" x2="197" y2="170" stroke="black" stroke-width="10"/>
</svg>
